<?xml version="1.0" standalone="no"?><!DOCTYPE svg PUBLIC "-//W3C//DTD SVG 1.1//EN" "http://www.w3.org/Graphics/SVG/1.1/DTD/svg11.dtd"><svg t="1653814896169" class="icon" viewBox="0 0 1104 1024" version="1.1" xmlns="http://www.w3.org/2000/svg" p-id="2067" xmlns:xlink="http://www.w3.org/1999/xlink" width="215.625" height="200"><defs><style type="text/css"></style></defs><path d="M673.392231 146.876618l6.783222 369.569821-481.892631 242.571143-0.851724-465.391013z" fill="#C27A32" p-id="2068"></path><path d="M953.552817 808.675306l-280.160586-289.743579V146.876618l284.458519 211.52906zM197.431098 752.243096V293.626569l304.166113 244.75942v468.142739l-298.771858-240.426545c-0.008736-0.004368-5.394255-2.996323-5.394255-13.859087z" fill="#D58F46" p-id="2069"></path><path d="M501.597211 1024a17.458169 17.458169 0 0 1-10.954487-3.861151l-298.265192-240.01597c-4.302301-3.092415-12.417707-11.151039-12.417706-27.879783V293.626569a17.471272 17.471272 0 0 1 28.421392-13.610121l304.166113 244.75942a17.471272 17.471272 0 0 1 6.516785 13.610121v468.142739a17.471272 17.471272 0 0 1-17.466905 17.471272z m-286.638059-270.555754l269.166787 216.600098v-423.289616l-269.223569-216.643775v422.132143c0 0.493563 0.021839 0.886667 0.056782 1.20115z" fill="#B37635" p-id="2070"></path><path d="M953.753736 804.460361l4.097014-446.054683-456.257906 167.654328v480.464354L944.585686 827.090027c0.004368 0 9.16805-2.791036 9.16805-22.629666z" fill="#C27A32" p-id="2071"></path><path d="M501.592844 1023.995632a17.462537 17.462537 0 0 1-17.47564-17.471272V526.060006a17.462537 17.462537 0 0 1 11.448051-16.396789l456.253538-167.654328a17.480008 17.480008 0 0 1 23.498861 16.558398l-4.097013 446.059051c0 23.385298-10.587591 34.999326-20.091963 38.642087l0.008735 0.017471-442.992842 179.434333a17.506215 17.506215 0 0 1-6.551727 1.275403z m17.471272-485.740678v442.342038l416.344784-168.641455c0.38-1.209886 0.873564-3.5423 0.873564-7.495176l3.865519-420.935361-421.083867 154.729954z m425.464789 271.3638z" fill="#8C581D" p-id="2072"></path><path d="M752.209508 28.028288c0.096092-0.117931 0.20092-0.235862 0.292644-0.358161l-82.77452 96.629239-83.630613-50.229907c-8.425521-5.053565-31.88944-12.387132-44.123697-4.035864a17.305295 17.305295 0 0 1 5.372416-2.677473s-429.66663 121.892698-431.999045 122.560975c-6.097474 0.908506-19.262078 4.276094-23.686677 16.680697a21.878401 21.878401 0 0 0-1.271035 7.329199c0 5.250117 1.913104 11.919775 8.836096 18.842767 0.327586 0.327586 0.663908 0.637701 1.013334 0.939081l66.740259 56.925772C134.814058 308.630024 34.970105 364.472577 33.489415 365.298095c-4.560002 2.004828-13.741156 7.342302-15.671731 18.318629a20.821389 20.821389 0 0 0-0.30138 3.577243c0 4.721611 1.528736 11.91104 9.141844 18.349204l259.216898 219.129063a17.414491 17.414491 0 0 1-2.860921-3.083679c6.595405 9.085062 21.310584 15.282995 38.056798 7.416555l164.186281-77.105092 125.054999 157.569036c7.403452 9.373338 23.092654 16.204605 39.965535 9.006441l417.69444-178.25939a17.584835 17.584835 0 0 1-3.398162 1.052644c7.696095-1.546208 17.200467-6.809428 20.821389-16.89472 1.82138-5.075405 3.411266-15.379087-6.355176-27.390587 0.218391 0.270805 0.436782 0.545977 0.637702 0.825517l-100.031769-139.066959L1076.319079 233.066771c-0.454253 0.598391-0.96092 1.166207-1.498162 1.703449a23.931275 23.931275 0 0 0 7.049658-17.597939c-0.275173-12.837017-10.251269-23.354723-14.518627-27.272656a17.357709 17.357709 0 0 0-2.690576-2.026667L797.215505 24.123459c-22.118631-13.527133-39.109443-3.36322-45.005997 3.904829z m-82.136819 138.154085l251.429079 186.973188c-51.911518 19.074261-411.216966 151.113401-427.906399 157.24145-13.304374-10.744832-218.347224-176.363757-259.662416-209.742623l436.139736-134.472015z" fill="#F7C28D" p-id="2073"></path><path d="M775.616645 0c-21.507136 0-33.667142 12.893799-37.122086 17.1961 0.244598-0.301379 0.484828-0.598391 0.733794-0.886667l-92.370617 107.83706a34.374728 34.374728 0 0 0-3.415633 4.74345l29.950128 17.991042-33.391969 10.294948a34.929441 34.929441 0 0 0 12.535638 17.742077l266.11805 197.892732 39.1968-14.400696-284.458519-211.533428L765.767215 39.039558S768.9994 34.942544 775.616645 34.942544c3.306438 0 7.44713 1.022069 12.457017 4.088278l267.437131 163.749499s8.88851 8.154716 8.871039 14.968512a6.390118 6.390118 0 0 1-1.939311 4.677934l-104.587404 135.987647 20.410814 28.373346a34.981855 34.981855 0 0 0 7.289889-7.071498l103.735678-134.869485a41.271513 41.271513 0 0 0 10.032878-28.037024c-0.423678-19.567825-14.256558-34.33105-20.179319-39.768984a35.160935 35.160935 0 0 0-5.372416-4.057703L806.318038 9.224832l-0.017471-0.004368C796.306999 3.101151 785.977109 0 775.616645 0z m-218.687914 48.932666c-5.08414 0-8.792418 0.489196-10.146442 0.698851-1.415173 0.218391-2.82161 0.524138-4.197473 0.917241L111.546691 172.830193c-2.183909 0.38-4.961841 0.982759-7.945061 1.921839-18.759779 5.931497-25.844379 18.820928-28.395185 25.966679-3.205978 9.006441-2.987588 18.969434 0.633334 28.063231 2.323679 5.831037 6.040692 11.334488 11.05058 16.340007 0.646437 0.650805 1.327817 1.275403 2.031035 1.873794l75.991298 64.81842 32.518406-18.191962-85.845096-73.208999c-2.686208-2.686208-3.717013-4.848278-3.708278-6.586669 0.021839-5.66506 11.063683-6.774486 11.063683-6.774486l433.16962-122.888561s1.865058-0.288276 4.813336-0.288276c4.940002 0 12.902535 0.82115 20.166216 5.175864l96.297284 57.829911L197.431098 293.626569l32.763003 26.464609 453.493077-139.818223a34.95128 34.95128 0 0 0 17.742077-12.544374l-28.037024-20.847596 22.730125-26.538862a34.7722 34.7722 0 0 0-4.739082-3.415634l-96.301653-57.834279-0.021839-0.013103c-13.985753-8.386211-28.456335-10.146441-38.131051-10.146441zM169.079591 269.446328L25.557457 349.718088c-1.847587 0.86046-4.092646 2.039771-6.438163 3.572875C9.112622 359.873265 2.534689 369.569821 0.604113 380.598562c-2.50276 14.278397 2.874024 28.233576 14.763225 38.288293l257.714369 217.858029a46.486688 46.486688 0 0 0 32.714957 13.348052c7.595636 0 15.226214-1.768966 22.673343-5.267589l176.713183-82.992911a35.226453 35.226453 0 0 0 6.86621-4.258622l-21.725527-27.373116 32.802314-12.055178a34.942544 34.942544 0 0 0-10.840925-15.130122l-274.609089-221.7978-40.245075 12.413338 292.901511 236.582865-176.695712 82.988543c-3.053105 1.428277-5.660692 1.952415-7.835865 1.952415-5.892187 0-8.652648-3.817473-8.652648-3.817473L37.931486 392.208222c-2.179541-1.843219-2.978852-3.494254-2.974484-4.926899 0.021839-3.961611 6.180463-6.241612 6.180462-6.241612L197.42673 293.626569l-28.347139-24.180241zM28.684815 348.390271z m950.467783-17.680927l-21.301848 27.700702 107.623036 149.61524c2.791036 3.428737 3.821841 6.167359 3.821841 8.342532 0.004368 6.128049-8.189659 7.783452-8.189659 7.783452l-417.685704 178.255022c-2.769197 1.183679-5.271956 1.637932-7.495176 1.637932-7.652417 0-11.941615-5.429198-11.941615-5.429198L490.332609 530.209433l467.518141-171.799387-33.505533-24.914034L478.277431 497.411488a35.003694 35.003694 0 0 0-15.130122 10.840924l27.1853 21.952654-31.623003 14.846213c1.135633 2.424139 2.559541 4.730347 4.258623 6.86621l133.646496 168.409961-0.008735-0.008736c7.167589 9.02828 21.231964 18.654951 39.323466 18.654951 7.163222 0 14.287133-1.493794 21.201388-4.442071l415.558578-177.346516c11.338856-3.551036 23.82208-12.081385 29.150818-26.936334 2.961381-8.26828 3.188507-17.217939 0.677011-25.905529-1.747127-6.04506-4.84391-11.919775-9.198624-17.480008l-107.094531-148.877078a35.737487 35.737487 0 0 0-7.071498-7.276785z m88.867626 227.698723l0.218391-0.048046-0.218391 0.048046z" fill="#A66E2E" p-id="2074"></path></svg>